<svg xmlns="http://www.w3.org/2000/svg" height="48" viewBox="0 -960 960 960" width="48"><path d="M439-119v-307h-20q-65-2-120.5-27.5t-98.5-71q-45.839-46.208-69.919-107.814Q106-693.921 106-760v-94h91.322q63.253 0 123.751 25.564Q381.57-802.872 428-756q31 33 50.606 70.276Q498.212-648.448 509-606q5.799-7.639 11.858-14.875T533-636q45.113-46.83 105.237-72.415Q698.36-734 763.667-734H856v94q0 66.541-26.043 127.883Q803.915-450.775 759-405q-45 46-101.061 71Q601.878-309 541-307h-18v188h-84Zm0-393q0-50-18-98.5t-52.316-85.971q-33.126-31.387-78.905-50.958Q244-767 191-769q2 57 18.5 105t49 82q39.5 40 83 54t97.5 16Zm84 121q50 0 96.657-18.014Q666.314-427.029 701.5-463q30.5-33 48-80.912Q767-591.824 771-649q-56 3-101.303 21.521Q624.393-608.958 591.5-577q-39.471 42.408-52.486 87.21Q526-444.988 523-391Zm0 0Zm-84-121Z"/></svg>